<?xml version="1.0" standalone="no"?>
<!DOCTYPE svg PUBLIC "-//W3C//DTD SVG 20010904//EN"
 "http://www.w3.org/TR/2001/REC-SVG-20010904/DTD/svg10.dtd">
<svg version="1.0" xmlns="http://www.w3.org/2000/svg"
 width="512.000000pt" height="512.000000pt" viewBox="0 0 512.000000 512.000000"
 preserveAspectRatio="xMidYMid meet">
<metadata>
Created by potrace 1.14, written by Peter Selinger 2001-2017
</metadata>
<g transform="translate(0.000000,512.000000) scale(0.100000,-0.100000)"
fill="#000000" stroke="none">
<path d="M4104 4173 c10 -11 37 -12 30 -2 -3 5 -12 9 -21 9 -9 0 -13 -3 -9 -7z"/>
<path d="M4175 4150 c3 -5 11 -10 16 -10 6 0 7 5 4 10 -3 6 -11 10 -16 10 -6
0 -7 -4 -4 -10z"/>
<path d="M4250 4122 c0 -4 14 -19 31 -32 17 -14 40 -34 52 -45 l21 -19 -35
-15 c-20 -8 -40 -24 -45 -35 -6 -14 -21 -21 -49 -24 -22 -2 -54 -15 -72 -28
-22 -16 -45 -24 -75 -24 -79 -1 -218 -37 -218 -57 0 -11 7 -13 31 -8 29 7 31
5 26 -14 -6 -25 14 -29 33 -6 16 20 59 19 81 -1 16 -14 19 -14 37 4 17 17 21
18 26 5 9 -22 -3 -36 -26 -30 -11 3 -26 -3 -37 -14 -22 -24 -112 -29 -137 -8
-15 12 -16 11 -10 -7 4 -15 -3 -29 -29 -54 -19 -18 -32 -37 -29 -42 11 -18 -8
-29 -21 -11 -13 17 -14 17 -20 1 -8 -20 -35 -24 -35 -5 -1 33 -20 -24 -26 -75
-5 -44 -10 -58 -23 -58 -9 0 -25 -14 -36 -30 -24 -35 -56 -39 -87 -10 -32 30
-66 26 -70 -6 -4 -31 -40 -50 -60 -31 -22 20 -78 48 -86 43 -19 -12 -96 46
-166 126 -65 73 -153 148 -231 195 -20 12 -25 14 -75 35 -14 6 -37 17 -52 24
-14 8 -38 14 -52 14 -14 0 -41 9 -61 20 -20 11 -46 20 -60 20 -13 0 -27 5 -30
10 -3 6 -21 10 -40 10 -19 0 -36 4 -39 8 -7 13 -249 22 -321 13 -46 -6 -51 -8
-22 -10 50 -2 47 -17 -5 -25 -24 -3 -65 -11 -93 -17 -27 -5 -97 -14 -155 -18
-58 -4 -113 -11 -122 -15 -11 -5 -18 -4 -18 2 0 6 6 13 13 15 7 3 6 6 -5 6 -9
1 -20 -3 -23 -9 -3 -5 -17 -10 -30 -10 -13 0 -26 -4 -29 -9 -4 -5 -24 -12 -46
-16 -47 -8 -92 -29 -110 -50 -7 -8 -19 -15 -26 -15 -15 0 -62 -25 -143 -77
-58 -37 -311 -283 -311 -302 0 -6 -20 -37 -45 -69 -25 -31 -45 -63 -45 -70 0
-8 -8 -26 -18 -40 -10 -15 -24 -40 -31 -57 -7 -16 -19 -43 -27 -58 -8 -16 -14
-39 -14 -51 0 -12 -5 -27 -11 -33 -6 -6 -19 -48 -29 -93 -10 -45 -23 -87 -29
-93 -13 -13 -16 -483 -3 -491 9 -5 38 -144 34 -160 -2 -4 3 -14 9 -22 7 -8 10
-17 7 -19 -10 -10 -150 14 -173 29 -13 9 -45 16 -71 16 -25 0 -60 7 -77 15
-38 17 -133 33 -282 46 -191 17 -170 22 -173 -40 -2 -30 2 -59 7 -64 6 -6 11
-22 11 -35 0 -13 8 -36 19 -50 10 -15 21 -46 24 -69 3 -23 14 -54 26 -69 12
-15 21 -34 21 -43 0 -9 20 -57 45 -106 25 -50 45 -95 45 -101 0 -6 17 -31 38
-55 22 -24 41 -49 43 -56 7 -22 225 -238 255 -253 44 -21 113 -74 113 -85 0
-5 -16 -32 -37 -59 -53 -70 -70 -99 -71 -117 -1 -9 -8 -22 -16 -29 -8 -7 -21
-24 -28 -39 -57 -108 -89 -167 -98 -175 -5 -6 -9 -24 -9 -41 0 -17 -5 -36 -11
-42 -6 -6 -9 -23 -7 -39 l3 -29 378 -1 c215 -1 377 2 377 7 0 5 22 9 49 9 28
0 52 4 55 8 3 5 31 15 63 22 32 7 62 17 67 22 6 4 38 8 73 8 63 0 126 23 154
56 6 8 16 14 21 14 5 0 33 20 61 45 29 25 56 45 62 45 6 0 41 34 78 75 l68 75
115 -2 c75 0 119 3 127 11 7 7 60 11 154 11 89 0 143 4 143 10 0 6 9 10 19 10
11 0 22 4 25 9 3 5 30 12 61 16 30 3 57 11 60 16 4 5 18 9 32 9 13 0 37 8 51
18 15 10 41 24 57 31 17 7 39 18 50 24 11 6 38 21 60 32 23 12 52 28 65 35 43
23 46 25 86 51 104 70 215 185 279 289 6 9 25 34 43 57 17 22 32 44 32 47 0 4
18 34 40 66 22 32 40 67 40 78 0 10 9 27 19 36 17 16 41 18 189 16 109 0 173
3 177 10 3 5 21 10 40 10 19 0 37 5 40 10 3 6 17 10 30 10 13 0 27 4 30 10 3
5 18 10 33 10 15 0 36 7 46 15 11 8 29 15 40 15 12 0 35 9 51 20 33 22 48 30
85 50 63 34 157 84 179 95 48 27 135 110 212 204 43 52 79 101 79 107 0 6 7
17 15 24 8 7 21 24 28 39 15 29 36 68 49 91 4 8 11 22 14 30 3 8 14 32 25 53
10 22 19 53 19 71 0 18 4 36 9 41 19 20 38 249 22 259 -6 4 -11 25 -11 46 0
21 -4 42 -10 45 -5 3 -10 31 -10 61 0 30 -4 62 -9 72 -17 34 -30 67 -36 97 -5
26 -28 83 -56 137 -5 10 -9 26 -9 36 0 11 -9 27 -20 37 -11 10 -20 26 -20 35
0 10 -7 23 -15 30 -8 7 -15 18 -15 25 0 6 -9 20 -20 30 -11 10 -20 22 -20 27
0 21 -116 152 -178 201 -63 49 -91 66 -194 118 -24 12 -51 25 -60 30 -22 11
-48 12 -48 1z m-2535 -573 c4 -6 17 -14 29 -19 17 -7 15 -9 -16 -9 -32 -1 -38
2 -38 19 0 21 15 27 25 9z m-95 -84 c0 -15 -6 -25 -14 -25 -19 0 -28 14 -20
34 10 25 34 19 34 -9z m2538 18 c-10 -2 -26 -2 -35 0 -10 3 -2 5 17 5 19 0 27
-2 18 -5z m-2223 -48 c-25 -18 -41 -14 -37 11 5 27 25 36 42 19 12 -13 12 -17
-5 -30z m70 -4 c-7 -24 -45 -29 -45 -6 0 8 9 15 20 15 11 0 20 5 20 12 0 6 3
9 6 5 3 -3 3 -15 -1 -26z m2185 -6 c21 -19 28 -55 10 -55 -6 0 -16 -12 -23
-26 l-12 -27 -5 24 c-5 20 -12 24 -43 24 -37 0 -57 15 -57 43 0 6 11 12 25 12
14 0 25 4 25 9 0 10 25 18 47 16 7 0 21 -9 33 -20z m-2395 -74 c3 -5 1 -12 -5
-16 -5 -3 -10 1 -10 9 0 18 6 21 15 7z m-269 -17 c20 -14 24 -22 19 -46 -8
-35 4 -110 16 -102 5 3 9 24 10 47 0 23 2 38 4 32 1 -5 8 -29 15 -52 7 -23 18
-41 24 -40 6 1 10 -3 9 -10 -2 -6 9 -21 24 -32 14 -12 22 -21 17 -21 -5 0 -17
-7 -27 -15 -14 -10 -16 -18 -9 -31 10 -19 -4 -64 -20 -64 -4 0 -8 -9 -8 -19 0
-26 -17 -36 -58 -32 -18 1 -38 -2 -45 -7 -7 -5 -37 -12 -67 -16 -30 -4 -58
-13 -62 -19 -6 -9 -10 -9 -17 2 -6 9 -22 12 -49 9 -30 -2 -43 1 -51 15 -9 13
-8 19 3 23 11 4 11 10 2 30 -6 13 -14 24 -18 24 -3 0 -9 14 -13 30 -4 17 -20
45 -36 63 -36 39 -37 52 -1 55 29 2 52 25 52 54 0 21 -16 24 -23 6 -3 -7 -6
-8 -6 -2 -1 5 5 18 12 28 12 17 15 17 29 2 25 -24 39 -20 88 28 34 34 50 43
67 39 14 -3 33 3 50 16 34 25 37 25 69 5z m414 -24 c0 -5 -2 -10 -4 -10 -3 0
-8 5 -11 10 -3 6 -1 10 4 10 6 0 11 -4 11 -10z m2200 -3 c0 -27 -22 -36 -47
-20 -18 12 -21 18 -11 24 20 13 58 10 58 -4z m-2840 -38 c0 -5 -7 -9 -15 -9
-15 0 -20 12 -9 23 8 8 24 -1 24 -14z m1137 -41 c-3 -8 -6 -5 -6 6 -1 11 2 17
5 13 3 -3 4 -12 1 -19z m95 -18 c30 -11 54 -16 58 -10 6 10 50 2 50 -10 0 -4
17 -10 39 -14 21 -3 44 -13 51 -21 7 -8 19 -15 26 -15 8 0 14 -3 14 -7 0 -5
18 -28 40 -52 29 -32 41 -55 46 -90 14 -107 14 -106 77 -105 55 1 57 0 57 -25
0 -19 -3 -22 -9 -12 -10 16 -49 22 -57 9 -3 -4 4 -8 15 -8 11 0 23 -4 26 -10
3 -5 -1 -10 -9 -10 -9 0 -16 -4 -16 -10 0 -5 9 -10 20 -10 25 0 26 -17 3 -23
-15 -4 -15 -6 5 -12 30 -10 28 -19 -10 -49 -42 -33 -59 -80 -42 -116 17 -34 8
-70 -18 -70 -17 0 -18 3 -8 15 6 8 9 19 5 24 -8 15 -78 32 -85 22 -3 -5 -25
-10 -50 -12 -37 -3 -45 0 -44 14 1 10 -5 17 -16 17 -9 0 -29 11 -44 25 -15 14
-31 25 -35 25 -4 0 -14 12 -22 28 -7 15 -21 35 -31 45 -10 10 -18 28 -18 40
-1 28 -21 55 -56 73 -34 18 -30 19 -56 -20 l-23 -33 -55 16 c-35 11 -50 20
-42 24 6 5 12 22 12 39 0 29 -1 30 -35 25 -19 -3 -35 -2 -35 4 0 5 -9 9 -20 9
-13 0 -20 7 -20 20 0 11 5 20 10 20 6 0 10 14 10 30 0 17 -4 30 -10 30 -5 0
-10 -13 -10 -30 0 -16 -5 -30 -11 -30 -7 0 -9 -10 -7 -25 6 -28 4 -29 -22 -15
-14 8 -25 7 -40 -2 -16 -10 -22 -10 -32 1 -8 8 -8 11 -2 8 17 -10 27 24 12 36
-9 5 -4 7 13 3 27 -6 49 17 28 29 -11 7 7 28 34 38 9 3 17 11 17 17 0 16 22
12 35 -7 11 -14 16 -15 28 -5 13 11 17 8 25 -15 6 -15 11 -21 11 -12 1 9 8 30
17 47 16 34 12 52 -12 52 -10 0 -13 -6 -9 -19 8 -25 -18 -34 -33 -11 -9 16 -8
20 8 25 11 4 20 10 20 14 0 4 12 13 26 20 22 10 25 16 20 44 -3 17 -3 26 0 19
11 -25 51 -62 67 -62 20 0 31 17 15 22 -8 3 -5 12 10 28 12 13 22 27 22 32 0
12 15 10 72 -12z m-135 -22 c-3 -8 -6 -5 -6 6 -1 11 2 17 5 13 3 -3 4 -12 1
-19z m-193 -23 c-7 -16 -24 -21 -24 -6 0 8 7 13 27 20 1 1 0 -6 -3 -14z m-34
-35 c0 -5 -4 -10 -10 -10 -5 0 -10 5 -10 10 0 6 5 10 10 10 6 0 10 -4 10 -10z
m0 -70 c0 -5 -4 -10 -10 -10 -5 0 -10 5 -10 10 0 6 5 10 10 10 6 0 10 -4 10
-10z m-80 -90 c0 -5 -16 -10 -36 -10 -21 0 -33 4 -29 10 3 6 19 10 36 10 16 0
29 -4 29 -10z m428 -183 c2 -10 1 -25 -2 -34 -6 -14 -8 -14 -21 3 -20 27 -19
56 2 52 10 -2 19 -11 21 -21z m-1571 -132 c-3 -58 -1 -65 15 -65 17 0 18 -6
12 -52 -6 -42 -4 -53 10 -63 19 -14 50 -157 41 -192 -3 -13 -1 -23 5 -23 6 0
8 6 4 13 -4 6 2 3 14 -7 15 -13 22 -31 22 -53 0 -19 6 -36 14 -39 8 -3 16 -28
20 -65 4 -32 11 -59 16 -59 6 0 10 9 10 19 0 11 5 23 11 26 7 5 8 -5 4 -29 -6
-29 -4 -36 9 -36 12 0 16 -10 17 -42 2 -99 3 -103 27 -106 18 -3 22 -10 22
-37 0 -20 6 -35 15 -39 8 -3 15 -17 15 -31 0 -26 15 -58 38 -83 6 -7 12 -18
12 -23 0 -15 -40 -10 -46 6 -4 11 -13 13 -28 9 -31 -9 -32 -13 -10 -29 22 -17
70 -20 79 -5 3 6 23 10 45 10 26 0 40 5 44 17 5 12 9 14 18 5 7 -7 20 -12 30
-12 11 0 18 -7 18 -19 0 -17 -4 -18 -45 -9 -40 9 -48 7 -74 -14 -17 -13 -28
-28 -26 -34 6 -20 -29 -10 -48 14 -10 12 -26 22 -35 23 -9 0 -32 21 -50 46
-42 57 -48 73 -32 83 8 5 10 14 5 26 -8 17 -9 17 -12 -3 -3 -13 -10 -23 -16
-23 -11 0 -107 184 -107 205 0 6 -14 37 -30 70 -16 33 -26 62 -24 65 3 3 10
-3 15 -13 6 -9 14 -17 19 -17 15 0 12 21 -5 34 -19 15 -26 176 -7 176 6 0 12
8 12 18 0 9 3 27 6 39 5 19 2 22 -33 25 l-38 3 3 74 c1 42 -3 79 -9 87 -13 16
-4 34 19 34 10 0 13 3 7 8 -11 8 -13 15 -22 77 -6 47 0 75 17 75 6 0 9 -25 7
-65z m620 28 c-3 -3 -11 -2 -17 2 -9 6 -9 10 1 16 14 8 27 -7 16 -18z m-202
-153 c0 -19 -32 -25 -50 -10 -24 20 -17 31 18 28 20 -2 32 -8 32 -18z m739
-12 c5 -15 7 -30 4 -33 -9 -10 -55 39 -50 53 7 21 36 9 46 -20z m694 -6 c3
-33 1 -35 -35 -26 -12 4 -20 12 -17 20 2 8 6 21 9 30 9 28 40 11 43 -24z
m-1570 -60 c4 -27 -22 -40 -43 -22 -8 7 -15 21 -15 31 0 28 54 21 58 -9z m61
-469 c2 -2 -3 -3 -11 -3 -9 0 -19 7 -22 16 -6 15 -4 15 11 3 10 -7 20 -15 22
-16z m-21 -40 c2 -16 -2 -23 -12 -23 -9 0 -16 7 -16 15 0 7 -8 19 -17 25 -15
9 -13 10 12 8 22 -2 31 -9 33 -25z m92 -63 c0 -18 -3 -19 -20 -8 -11 7 -20 21
-20 31 0 15 3 16 20 7 11 -6 20 -20 20 -30z m15 -64 c7 3 16 1 20 -5 3 -6 -1
-14 -9 -17 -9 -3 -16 -15 -16 -26 0 -10 4 -17 9 -14 10 7 37 -22 28 -30 -12
-12 -46 18 -49 43 -2 19 -10 29 -28 33 -24 6 -24 6 -5 18 20 11 20 11 -1 12
-12 0 -25 10 -32 25 -22 49 -12 50 29 3 23 -27 46 -45 54 -42z m-108 2 c-3 -8
-6 -5 -6 6 -1 11 2 17 5 13 3 -3 4 -12 1 -19z m66 -71 c18 -4 17 -5 -5 -6 -24
-1 -28 3 -27 27 1 22 2 23 6 5 2 -13 13 -24 26 -26z m111 28 c3 -9 0 -15 -9
-15 -8 0 -15 7 -15 15 0 8 4 15 9 15 5 0 11 -7 15 -15z m126 -78 c0 -1 4 -16
9 -32 8 -29 7 -30 -25 -30 -19 0 -34 3 -34 7 0 19 25 58 37 58 7 0 13 -1 13
-3z m-90 -66 c0 -5 14 -14 30 -20 24 -8 30 -16 30 -38 0 -21 3 -25 10 -13 7
12 12 12 22 2 18 -18 28 -15 28 8 0 39 87 17 120 -30 8 -12 31 -28 52 -37 23
-9 38 -23 42 -39 4 -14 14 -24 25 -24 10 0 30 -9 44 -20 14 -11 32 -20 41 -20
9 0 16 -6 16 -14 0 -9 17 -16 45 -20 33 -5 45 -12 45 -24 0 -32 211 -127 255
-116 33 8 32 -2 -2 -20 -31 -16 -22 -23 37 -28 l35 -3 -33 -18 c-26 -14 -46
-17 -89 -12 -42 4 -54 2 -51 -7 3 -7 10 -13 15 -13 6 0 15 -3 19 -7 4 -5 -9
-8 -28 -8 -28 0 -37 5 -41 22 -5 18 -8 19 -21 8 -11 -8 -16 -9 -16 -1 0 6 -15
11 -33 11 -49 0 -140 52 -137 77 1 4 -7 13 -16 18 -35 19 -84 80 -80 98 2 10
-2 17 -10 17 -8 0 -14 -7 -14 -15 0 -21 -24 -19 -45 5 -10 11 -26 20 -35 20
-9 0 -29 14 -45 30 -16 17 -34 30 -41 30 -10 0 -76 55 -114 97 -76 83 -95 113
-70 113 6 0 10 -4 10 -9z m280 -32 c0 -5 -4 -9 -10 -9 -5 0 -10 7 -10 16 0 8
5 12 10 9 6 -3 10 -10 10 -16z m70 6 c10 -12 10 -19 1 -28 -9 -9 -14 -9 -21 3
-22 34 -4 54 20 25z m-475 -66 c10 -15 -1 -22 -24 -14 -12 3 -19 11 -16 16 8
12 32 11 40 -2z m545 -14 c7 -8 20 -15 29 -15 22 -1 74 -48 66 -60 -12 -20
-35 -10 -35 15 0 21 -5 25 -32 26 -18 1 -37 1 -42 0 -13 -3 -25 20 -19 36 7
17 18 17 33 -2z m480 -285 c0 -5 -4 -10 -10 -10 -5 0 -10 5 -10 10 0 6 5 10
10 10 6 0 10 -4 10 -10z m40 -80 c0 -5 -8 -10 -17 -10 -15 0 -16 2 -3 10 19
12 20 12 20 0z"/>
<path d="M4146 3411 c-4 -7 -5 -15 -2 -18 9 -9 19 4 14 18 -4 11 -6 11 -12 0z"/>
<path d="M1381 3211 c-21 -14 -5 -43 21 -39 15 2 23 10 23 23 0 22 -22 30 -44
16z"/>
<path d="M1590 3120 c0 -11 5 -20 10 -20 6 0 10 9 10 20 0 11 -4 20 -10 20 -5
0 -10 -9 -10 -20z"/>
<path d="M1382 3048 c2 -15 10 -23 23 -23 13 0 21 8 23 23 3 18 -1 22 -23 22
-22 0 -26 -4 -23 -22z"/>
<path d="M1480 3030 c0 -16 5 -30 10 -30 6 0 10 14 10 30 0 17 -4 30 -10 30
-5 0 -10 -13 -10 -30z"/>
<path d="M1537 3054 c-9 -10 2 -24 19 -24 8 0 14 7 14 15 0 15 -21 21 -33 9z"/>
<path d="M2480 3138 l0 -31 24 23 c14 12 32 20 40 17 9 -4 18 -2 21 2 6 11
-19 21 -56 21 -26 0 -29 -3 -29 -32z"/>
<path d="M2750 2745 c0 -9 5 -15 11 -13 6 2 11 8 11 13 0 5 -5 11 -11 13 -6 2
-11 -4 -11 -13z"/>
<path d="M1075 1880 c-4 -6 -3 -16 3 -22 6 -6 12 -6 17 2 4 6 3 16 -3 22 -6 6
-12 6 -17 -2z"/>
<path d="M1177 1726 c-7 -17 18 -42 27 -27 7 11 -3 41 -14 41 -4 0 -10 -6 -13
-14z"/>
<path d="M2008 3951 c12 -7 62 -4 62 5 0 2 -17 4 -37 4 -24 0 -33 -3 -25 -9z"/>
<path d="M2114 3951 c3 -5 15 -7 26 -4 28 7 25 13 -6 13 -14 0 -23 -4 -20 -9z"/>
<path d="M1855 3910 c-3 -5 1 -10 9 -10 8 0 18 5 21 10 3 6 -1 10 -9 10 -8 0
-18 -4 -21 -10z"/>
<path d="M3810 3756 c0 -9 7 -16 16 -16 9 0 14 5 12 12 -6 18 -28 21 -28 4z"/>
</g>
</svg>
